<svg height="20" viewBox="0 0 177 20" width="177" xmlns="http://www.w3.org/2000/svg"><g fill="#fff"><path d="m1.3.9 3.2 12.5.5 2.6.6-2.5 3.7-12.6h1.3l3.7 12.6.6 2.6.6-2.7 3.1-12.5h1.4l-4.3 17.1h-1.4l-3.9-13.3-.4-1.7-.4 1.7-4 13.3h-1.4l-4.3-17.1zm33.3 7.5v2q0 2.4-.8 4.1-.8 1.8-2.3 2.8-1.5.9-3.5.9-3 0-4.8-2.1-1.9-2.1-1.9-5.8v-1.7q0-2.4.8-4.2.9-1.8 2.4-2.7 1.5-1 3.5-1 1.9 0 3.4 1 1.6.9 2.4 2.6.8 1.8.8 4.1zm-1.4 1.9v-1.8q0-3-1.4-4.8-1.4-1.7-3.8-1.7-2.4 0-3.8 1.7-1.4 1.8-1.4 4.9v1.8q0 3 1.4 4.8 1.4 1.8 3.8 1.8 2.4 0 3.8-1.8 1.4-1.7 1.4-4.9zm17-9.4v17.1h-1.4l-9.8-14.6v14.6h-1.5v-17.1h1.5l9.8 14.7v-14.7zm8.3 17.1h-4.7v-17.1h4.8q2.1 0 3.8 1 1.6.9 2.6 2.7.9 1.8.9 4.1v1.6q0 2.2-.9 4-1 1.8-2.6 2.7-1.7 1-3.9 1zm.1-15.8h-3.3v14.6h3.2q2.7 0 4.3-1.8 1.7-1.8 1.7-4.8v-1.5q0-3-1.6-4.8-1.6-1.7-4.3-1.7zm19.6 6.4v1.2h-7.9v7h9.1v1.2h-10.6v-17.1h10.6v1.3h-9.1v6.4zm14 9.4-4.1-7.1h-5v7.1h-1.5v-17.1h5.6q2.7 0 4.3 1.4 1.5 1.3 1.5 3.7 0 1.6-1 2.9-.9 1.2-2.6 1.7l4.3 7.2v.2zm-9.1-15.8v7.5h4.4q1.9 0 3-1.1 1.1-1 1.1-2.6 0-1.8-1.2-2.8-1.1-1-3.2-1zm30.5-1.3v14.3h7.5v2.8h-11v-17.1zm19 7v2.7h-6.7v4.6h7.9v2.8h-11.5v-17.1h11.5v2.9h-7.9v4.1zm16 1.1v6.8q-1 1.2-2.7 1.8-1.7.6-3.9.6-2.2 0-3.8-.9-1.7-1-2.6-2.8-.9-1.9-.9-4.4v-1.1q0-2.6.8-4.4.9-1.9 2.5-2.9 1.6-1 3.8-1 3 0 4.7 1.5 1.8 1.4 2.1 4.2h-3.4q-.3-1.5-1.1-2.2-.8-.7-2.2-.7-1.8 0-2.7 1.4-1 1.3-1 4v1.1q0 2.7 1 4 1.1 1.4 3 1.4 2 0 2.9-.8v-3h-3.2v-2.6zm12.9 9-1.2-3.5h-6.1l-1.2 3.5h-3.8l6.4-17.1h3.3l6.3 17.1zm-4.2-12.7-2.2 6.3h4.3zm12.4-4.3v14.3h7.5v2.8h-11v-17.1z"/><path d="m101.5 14.7c1 0 1.8.8 1.8 1.8s-.8 1.8-1.8 1.8-1.8-.8-1.8-1.8.8-1.8 1.8-1.8z"/></g></svg>